<?xml version="1.0" standalone="no"?><!DOCTYPE svg PUBLIC "-//W3C//DTD SVG 1.1//EN" "http://www.w3.org/Graphics/SVG/1.1/DTD/svg11.dtd"><svg t="1611818534076" class="icon" viewBox="0 0 1024 1024" version="1.1" xmlns="http://www.w3.org/2000/svg" p-id="4114" xmlns:xlink="http://www.w3.org/1999/xlink" width="200" height="200"><defs><style type="text/css"></style></defs><path d="M298.666667 938.666667a85.333333 85.333333 0 1 0 0-170.666667 85.333333 85.333333 0 0 0 0 170.666667zM725.333333 938.666667a85.333333 85.333333 0 1 0 0-170.666667 85.333333 85.333333 0 0 0 0 170.666667zM147.072 89.856a42.666667 42.666667 0 1 0-38.144 76.288l42.794667 21.418667a42.666667 42.666667 0 0 1 23.424 34.304l31.317333 344.405333A128 128 0 0 0 333.909333 682.666667h369.706667a128 128 0 0 0 123.093333-92.842667l52.096-182.4A85.333333 85.333333 0 0 0 796.757333 298.666667H267.818667l-7.68-84.522667A128 128 0 0 0 189.866667 111.232l-42.837334-21.376z" fill="#2c2c2c" p-id="4115"></path></svg>