<?xml version="1.0" standalone="no"?><!DOCTYPE svg PUBLIC "-//W3C//DTD SVG 1.1//EN" "http://www.w3.org/Graphics/SVG/1.1/DTD/svg11.dtd"><svg t="1611980354809" class="icon" viewBox="0 0 1024 1024" version="1.1" xmlns="http://www.w3.org/2000/svg" p-id="5535" xmlns:xlink="http://www.w3.org/1999/xlink" width="200" height="200"><defs><style type="text/css"></style></defs><path d="M957.2 155.8H66.8C30 155.8 0 185.8 0 222.6V801.4c0 36.8 30 66.8 66.8 66.8h890.4c36.8 0 66.8-30 66.8-66.8V222.6c0-36.8-30-66.8-66.8-66.8z m22.3 645.6c0 12.3-10 22.3-22.3 22.3H66.8c-12.3 0-22.3-10-22.3-22.3V342.8h935v458.6z m-935-503.1v-75.7c0-12.3 10-22.3 22.3-22.3h890.4c12.3 0 22.3 10 22.3 22.3v75.7h-935z" p-id="5536" fill="#515151"></path><path d="M111.3 489.7h445.2c12.3 0 22.3-10 22.3-22.3s-10-22.3-22.3-22.3H111.3c-12.3 0-22.3 10-22.3 22.3s10 22.3 22.3 22.3zM734.6 489.7h133.6c12.3 0 22.3-10 22.3-22.3s-10-22.3-22.3-22.3H734.6c-12.3 0-22.3 10-22.3 22.3s10 22.3 22.3 22.3zM111.3 779.1c12.3 0 22.3-10 22.3-22.3V623.3c0-12.3-10-22.3-22.3-22.3S89 611 89 623.3v133.6c0 12.3 10 22.2 22.3 22.2zM244.9 601c-12.3 0-22.3 10-22.3 22.3v133.6c0 12.3 10 22.3 22.3 22.3s22.3-10 22.3-22.3V623.3c-0.1-12.3-10-22.3-22.3-22.3zM378.4 601c-12.3 0-22.3 10-22.3 22.3v133.6c0 12.3 10 22.3 22.3 22.3s22.3-10 22.3-22.3V623.3c0-12.3-10-22.3-22.3-22.3z" p-id="5537" fill="#515151"></path></svg>